<?xml version="1.0" encoding="utf-8"?>
<!-- Generator: Adobe Illustrator 24.1.0, SVG Export Plug-In . SVG Version: 6.00 Build 0)  -->
<svg version="1.1" id="Logos" xmlns="http://www.w3.org/2000/svg" xmlns:xlink="http://www.w3.org/1999/xlink" x="0px" y="0px"
	 viewBox="0 0 340 80" style="enable-background:new 0 0 340 80;" xml:space="preserve">
<style type="text/css">
	.st0{fill:#FFFFFF;}
	.st1{fill:#0066FF;}
</style>
<g id="ChatBot_Logo">
	<g id="Wordmark">
		<path class="st0" d="M121.1,58c12,0,19.5-8.2,19.9-17.9h-8.8c-0.6,5.4-4,10.1-11.1,10.1c-7.9,0-11.4-5.4-11.4-13.1v-7.7
			c0-7.6,3.4-13.1,11.4-13.1c7.1,0,10.5,4.7,11.1,10.1h8.8c-0.5-9.7-7.9-17.9-19.9-17.9c-14.3,0-20.8,9.2-20.8,21.3v6.8
			C100.3,48.8,106.7,58,121.1,58z"/>
		<path class="st0" d="M146,57.1h9.2V36.1c0-4.8,2.6-7.2,6.8-7.2c4.5,0,6.5,2.9,6.5,7v21.1h9.2V34.4c0-8.4-4.8-13.5-12.5-13.5
			c-4.6,0-8.2,2-10,5V7.4H146L146,57.1z"/>
		<path class="st0" d="M195.4,57.9c4.1,0,8.6-1.7,10.2-4.1v3.3h8.9V34.5c0-8.2-6.1-13.6-14.9-13.6c-7.6,0-13.1,3.7-15.2,10.5h8.6
			c0.9-1.9,2.9-3.3,6.1-3.3c3.8,0,6.1,2.4,6.1,5.7v4.8c-2.6-2-5.7-3.1-9-3c-8.5,0-14.3,3.5-14.3,11.2
			C182,53.7,187.5,57.9,195.4,57.9z M197.8,51.8c-3.9,0-6.8-1.9-6.8-5.2s2.7-5,7.1-5c4.1,0,7.2,1.8,7.2,5S201.9,51.8,197.8,51.8z"/>
		<path class="st0" d="M231.8,57.1h6.4v-7.5h-3.7c-2.4,0-3.3-1-3.3-3.3V29.2h7.5v-7.5h-7.5V12h-9.3v9.7h-5v7.5h5V47
			C221.8,53.3,225,57.1,231.8,57.1z"/>
		<path class="st0" d="M243.3,57.1H265c9.5,0,16.1-5.4,16.1-13.4c0-6.5-4-10.2-8.8-11.2c3.3-1.9,6-5.5,6-11c0-7.1-5.2-12-13.6-12
			h-21.4V57.1z M252.5,49.6v-13h11.9c4.5,0,7.1,2.5,7.1,6.5s-2.5,6.5-7.1,6.5L252.5,49.6z M252.5,29.2V16.9h9.9
			c3.9,0,6.2,2.3,6.2,5.9c0,3.6-2.2,6.3-6.2,6.3L252.5,29.2z"/>
		<path class="st0" d="M299.8,57.9c10.6,0,16.7-6.9,16.7-16v-5c0-9.1-6.1-16-16.7-16s-16.6,6.9-16.6,16v5
			C283.2,50.9,289.2,57.9,299.8,57.9z M307.5,42.5c0,4.6-2.5,8.1-7.7,8.1s-7.7-3.5-7.7-8.1v-6.2c0-4.6,2.5-8.1,7.7-8.1
			s7.7,3.5,7.7,8.1V42.5z"/>
		<path class="st0" d="M332.9,57.1h6.4v-7.5h-3.7c-2.5,0-3.3-1-3.3-3.3V29.2h7.5v-7.5h-7.5V12h-9.3v9.7h-5v7.5h5V47
			C322.9,53.3,326.1,57.1,332.9,57.1z"/>
	</g>
	<g id="Mark">
		<path class="st1" d="M59.3,31.4v7.8c0,1.1-0.6,2.1-1.6,2.6c-5.4,2.6-11.4,4.1-17.4,4.2c-6-0.2-12-1.6-17.4-4.2
			c-1-0.5-1.6-1.5-1.6-2.6v-7.8c0-1.2,1-2.2,2.2-2.2c0.3,0,0.6,0.1,0.8,0.2c5,2.2,10.4,3.5,15.9,3.6c5.5-0.1,10.9-1.4,15.9-3.6
			c1.1-0.5,2.4,0,2.9,1.1C59.2,30.8,59.3,31.1,59.3,31.4z"/>
		<path class="st1" d="M79.8,49.7c-0.8,9.8-9.1,17.4-19,17.3H50.3l-20,13V67l20-13h10.5c3.1,0.1,5.7-2.2,6-5.3c0.6-10,0.6-20-0.2-30
			c-0.2-2.7-2.5-4.9-5.2-5.1c-6.8-0.5-14-0.7-21.2-0.7S25.8,13.2,19,13.7c-2.8,0.2-5,2.3-5.2,5.1c-0.7,10-0.8,20-0.2,30
			c0.3,3.1,3,5.4,6.1,5.3h10.5v13H19.8c-9.9,0.1-18.2-7.4-19-17.3c-0.7-10.7-0.6-21.3,0.2-32C1.7,8.6,9,1.4,18.2,0.8
			C25.3,0.2,32.8,0,40.3,0s15,0.2,22.1,0.8c9.2,0.6,16.5,7.8,17.3,17C80.4,28.4,80.5,39.1,79.8,49.7z"/>
	</g>
</g>
</svg>
