<?xml version="1.0" encoding="utf-8"?>
<!-- Generator: Adobe Illustrator 24.1.0, SVG Export Plug-In . SVG Version: 6.00 Build 0)  -->
<svg version="1.1" id="Logos" xmlns="http://www.w3.org/2000/svg" xmlns:xlink="http://www.w3.org/1999/xlink" x="0px" y="0px"
	 viewBox="0 0 80 80" style="enable-background:new 0 0 80 80;" xml:space="preserve">
<style type="text/css">
	.st0{fill:#0066FF;}
</style>
<g id="Mark">
	<path class="st0" d="M59,31.4v7.8c0,1.1-0.6,2.1-1.6,2.6C52,44.4,46,45.8,40,46c-6-0.2-12-1.6-17.4-4.2c-1-0.5-1.6-1.5-1.6-2.6
		v-7.8c0-1.2,1-2.2,2.2-2.2c0.3,0,0.6,0.1,0.8,0.2c5,2.2,10.4,3.5,15.9,3.6c5.5-0.1,10.9-1.3,15.9-3.5c1.1-0.5,2.4,0,2.9,1.2
		C58.9,30.9,59,31.1,59,31.4z"/>
	<path class="st0" d="M79.5,49.7c-0.8,9.8-9.1,17.4-19,17.3H50L30,80V67l20-13h10.5c3.1,0.1,5.7-2.2,6.1-5.3c0.6-10,0.6-20-0.2-30
		c-0.2-2.8-2.5-4.9-5.2-5.1C54.4,13.3,47.2,13,40,13s-14.4,0.2-21.2,0.7c-2.8,0.2-5,2.3-5.2,5.1c-0.7,10-0.8,20-0.2,30
		c0.3,3.1,3,5.3,6.1,5.2H30v13H19.5c-9.9,0.1-18.2-7.4-19-17.3c-0.7-10.7-0.6-21.3,0.2-32c0.8-9.2,8.1-16.4,17.3-17
		C25,0.2,32.5,0,40,0s15,0.2,22.1,0.8c9.2,0.6,16.5,7.8,17.3,17C80.1,28.4,80.2,39.1,79.5,49.7z"/>
</g>
</svg>
